<?xml version="1.0" encoding="UTF-8" standalone="no"?>
<!-- Created with Inkscape (http://www.inkscape.org/) -->

<svg
   version="1.1"
   id="svg2"
   width="1200"
   height="1200"
   viewBox="0 0 1200 1200"
   sodipodi:docname="vecteezy_battery-level-icon-set-vector-illustration_11949419-0.eps"
   xmlns:inkscape="http://www.inkscape.org/namespaces/inkscape"
   xmlns:sodipodi="http://sodipodi.sourceforge.net/DTD/sodipodi-0.dtd"
   xmlns="http://www.w3.org/2000/svg"
   xmlns:svg="http://www.w3.org/2000/svg">
  <defs
     id="defs6" />
  <sodipodi:namedview
     id="namedview4"
     pagecolor="#ffffff"
     bordercolor="#000000"
     borderopacity="0.25"
     inkscape:showpageshadow="2"
     inkscape:pageopacity="0.0"
     inkscape:pagecheckerboard="0"
     inkscape:deskcolor="#d1d1d1"
     showgrid="false" />
  <g
     id="g10"
     inkscape:groupmode="layer"
     inkscape:label="Page 1"
     transform="matrix(1.3333333,0,0,-1.3333333,1550.8387,4299.2685)">
    <path
       d="m -793.67912,2399.0398 c 0,11.12 1.141,20.11 3.421,26.91 2.303,6.82 5.702,12.06 10.22,15.72 4.495,3.67 10.175,5.49 17.017,5.49 5.044,0 9.474,-1.01 13.311,-3.05 3.816,-2.04 6.974,-4.98 9.431,-8.82 2.455,-3.81 4.385,-8.48 5.789,-13.99 1.425,-5.5 2.127,-12.94 2.127,-22.26 0,-11.05 -1.14,-20 -3.399,-26.8 -2.259,-6.82 -5.658,-12.06 -10.176,-15.74 -4.495,-3.69 -10.197,-5.53 -17.083,-5.53 -9.057,0 -16.184,3.23 -21.36,9.69 -6.205,7.9 -9.298,20.68 -9.298,38.38 z m 11.842,-0.04 c 0,-15.51 1.799,-25.81 5.417,-30.9 3.618,-5.11 8.092,-7.65 13.399,-7.65 5.307,0 9.781,2.56 13.399,7.67 3.619,5.13 5.417,15.42 5.417,30.88 0,15.5 -1.798,25.81 -5.417,30.9 -3.597,5.11 -8.114,7.65 -13.531,7.65 -5.307,0 -9.561,-2.26 -12.741,-6.75 -3.969,-5.73 -5.943,-16.34 -5.943,-31.8"
       style="fill:#000000;fill-opacity:1;fill-rule:nonzero;stroke:none;stroke-width:0.1"
       id="path14" />
    <path
       d="m -718.39412,2424.1498 c 0,6.71 1.689,12.44 5.088,17.13 3.399,4.71 8.311,7.06 14.759,7.06 5.921,0 10.833,-2.11 14.714,-6.32 3.88195,-4.21 5.83395,-10.41 5.83395,-18.57 0,-7.96 -1.974,-14.1 -5.89895,-18.4 -3.926,-4.3 -8.772,-6.45 -14.518,-6.45 -5.723,0 -10.482,2.13 -14.276,6.36 -3.794,4.24 -5.702,10.64 -5.702,19.19 z m 20.176,16.16 c -2.873,0 -5.263,-1.22 -7.171,-3.7 -1.908,-2.48 -2.873,-7.02 -2.873,-13.62 0,-6.01 0.965,-10.24 2.894,-12.68 1.93,-2.45 4.321,-3.68 7.15,-3.68 2.916,0 5.328,1.23 7.237,3.71 1.907,2.47 2.85,6.99 2.85,13.55 0,6.05 -0.964,10.31 -2.895,12.74 -1.929,2.46 -4.319,3.68 -7.192,3.68 z m 0.065,-91.18 51.38395,99.21 h 9.43 l -51.25195,-99.21 z m 40.54395,25.55 c 0,6.75 1.69,12.48 5.09,17.17 3.38,4.67 8.31,7.02 14.78,7.02 5.92,0 10.84,-2.11 14.72,-6.32 3.88,-4.21 5.81,-10.42 5.81,-18.57 0,-7.96 -1.95,-14.1 -5.88,-18.4 -3.92,-4.3 -8.79,-6.45 -14.58,-6.45 -5.7,0 -10.44,2.13 -14.23,6.38 -3.8,4.26 -5.71,10.66 -5.71,19.17 z m 20.2,16.16 c -2.91,0 -5.3,-1.23 -7.21,-3.71 -1.91,-2.47 -2.85,-7.01 -2.85,-13.61 0,-5.97 0.96,-10.18 2.89,-12.66 1.91,-2.48 4.28,-3.7 7.11,-3.7 2.96,0 5.37,1.22 7.28,3.7 1.9,2.48 2.85,7 2.85,13.55 0,6.06 -0.97,10.31 -2.9,12.75 -1.9,2.45 -4.3,3.68 -7.17,3.68"
       style="fill:#000000;fill-opacity:1;fill-rule:nonzero;stroke:none;stroke-width:0.1"
       id="path16" />
    <path
       d="m -839.48412,3127.8097 h 50.184 v 27.12 c 0,10.1 4.141,19.29 10.816,25.99 l 0.021,0.02 0.018,0.02 c 6.694,6.67 15.893,10.81 25.992,10.81 h 82.67395 c 10.14,0 19.36,-4.14 26.03,-10.81 l -0.02,-0.02 c 6.69,-6.7 10.84,-15.91 10.84,-26.01 v -27.12 h 50.18 c 11.23,0 21.44,-4.59 28.82,-11.98 7.39,-7.38 11.98,-17.59 11.98,-28.82 v -555.27 c 0,-11.22 -4.59,-21.43 -11.98,-28.8199 -7.38,-7.39 -17.59,-11.98 -28.82,-11.98 h -256.73495 c -11.229,0 -21.433,4.59 -28.822,11.98 -7.389,7.3899 -11.978,17.5999 -11.978,28.8199 v 555.27 c 0,11.23 4.589,21.44 11.978,28.82 7.389,7.39 17.593,11.98 28.822,11.98 z m 60.135,-19.9 h -60.135 c -5.736,0 -10.961,-2.36 -14.751,-6.15 -3.791,-3.79 -6.146,-9.01 -6.146,-14.75 v -555.27 c 0,-5.73 2.355,-10.96 6.146,-14.75 3.79,-3.79 9.015,-6.14 14.751,-6.14 h 256.73495 c 5.74,0 10.96,2.35 14.75,6.14 3.79,3.79 6.15,9.02 6.15,14.75 v 555.27 c 0,5.74 -2.36,10.96 -6.15,14.75 -3.79,3.79 -9.01,6.15 -14.75,6.15 h -60.13 c -6.19,-0.12 -10.35,-1.01 -10.03,6.96 0.03,0.69 0.06,1.36 0.08,2.05 0,0.31 0,0.63 0,0.94 v 37.07 c 0,4.67 -1.9,8.91 -4.95,11.96 h -0.04 c -3.07,3.07 -7.31,4.98 -11.96,4.98 h -82.67395 c -4.675,0 -8.91,-1.89 -11.959,-4.95 l -0.039,-0.03 c -3.052,-3.05 -4.946,-7.29 -4.946,-11.96 v -37.07 c 0.097,-7.29 0.872,-10.46 -7.968,-10 -0.496,0.03 -0.964,0.04 -1.461,0.05 h -0.523"
       style="fill:#000000;fill-opacity:1;fill-rule:nonzero;stroke:none;stroke-width:0.1"
       id="path84" />
    <path
       d="m -738.20312,2676.8597 44.029,164.63 h -67.957 l 58.491,164.36 -29.893,-131.82 h 73.43395 l -78.10395,-197.17"
       style="fill:#000000;fill-opacity:1;fill-rule:evenodd;stroke:none;stroke-width:0.1"
       id="path86" />
    <path
       d="m -738.20312,2676.8597 44.029,164.63 h -67.957 l 58.491,164.36 -29.893,-131.82 h 73.43395 z"
       style="fill:none;stroke:#000000;stroke-width:0.50003;stroke-linecap:butt;stroke-linejoin:miter;stroke-miterlimit:2.61313;stroke-dasharray:none;stroke-opacity:1"
       id="path88" />
  </g>
</svg>
