<?xml version="1.0" encoding="UTF-8" standalone="no"?>
<!-- Created with Inkscape (http://www.inkscape.org/) -->

<svg
   version="1.1"
   id="svg2"
   width="1200"
   height="1200"
   viewBox="0 0 1200 1200"
   sodipodi:docname="vecteezy_battery-level-icon-set-vector-illustration_11949419-0.eps"
   xmlns:inkscape="http://www.inkscape.org/namespaces/inkscape"
   xmlns:sodipodi="http://sodipodi.sourceforge.net/DTD/sodipodi-0.dtd"
   xmlns="http://www.w3.org/2000/svg"
   xmlns:svg="http://www.w3.org/2000/svg">
  <defs
     id="defs6" />
  <sodipodi:namedview
     id="namedview4"
     pagecolor="#ffffff"
     bordercolor="#000000"
     borderopacity="0.25"
     inkscape:showpageshadow="2"
     inkscape:pageopacity="0.0"
     inkscape:pagecheckerboard="0"
     inkscape:deskcolor="#d1d1d1"
     showgrid="false" />
  <g
     id="g10"
     inkscape:groupmode="layer"
     inkscape:label="Page 1"
     transform="matrix(1.3333333,0,0,-1.3333333,1550.8387,4299.2685)">
    <path
       d="m -810.53071,2347.402 h -11.58 v 73.72 c -2.78,-2.67 -6.44,-5.33 -10.96,-7.98 -4.52,-2.65 -8.6,-4.65 -12.19,-5.96 v 11.18 c 6.47,3.03 12.12,6.71 16.97,11.05 4.85,4.32 8.29,8.51 10.31,12.59 h 7.45 v -94.6"
       style="fill:#000000;fill-opacity:1;fill-rule:nonzero;stroke:none;stroke-width:0.1"
       id="path22" />
    <path
       d="m -780.77071,2393.892 c 0,11.11 1.14,20.11 3.42,26.9 2.31,6.82 5.71,12.07 10.22,15.73 4.5,3.66 10.18,5.48 17.02,5.48 5.04,0 9.47,-1.01 13.31,-3.05 3.82,-2.04 6.98,-4.98 9.43,-8.81 2.46,-3.82 4.39,-8.49 5.79,-13.99 1.43,-5.51 2.13,-12.94 2.13,-22.26 0,-11.06 -1.14,-20 -3.4,-26.8 -2.26,-6.82 -5.66,-12.06 -10.18,-15.75 -4.49,-3.68 -10.19,-5.52 -17.08,-5.52 -9.06,0 -16.18,3.22 -21.36,9.69 -6.21,7.89 -9.3,20.68 -9.3,38.38 z m 11.84,-0.05 c 0,-15.5 1.8,-25.81 5.42,-30.9 3.62,-5.11 8.09,-7.65 13.4,-7.65 5.31,0 9.78,2.57 13.4,7.68 3.62,5.13 5.42,15.41 5.42,30.87 0,15.51 -1.8,25.81 -5.42,30.9 -3.6,5.11 -8.11,7.66 -13.53,7.66 -5.31,0 -9.56,-2.26 -12.74,-6.76 -3.97,-5.72 -5.95,-16.34 -5.95,-31.8"
       style="fill:#000000;fill-opacity:1;fill-rule:nonzero;stroke:none;stroke-width:0.1"
       id="path24" />
    <path
       d="m -705.48071,2419.002 c 0,6.71 1.69,12.43 5.09,17.12 3.39,4.72 8.31,7.07 14.75,7.07 5.93,0 10.84,-2.11 14.72,-6.32 3.88,-4.21 5.83,-10.42 5.83,-18.58 0,-7.96 -1.97,-14.1 -5.9,-18.39 -3.92,-4.3 -8.77,-6.45 -14.51,-6.45 -5.73,0 -10.49,2.13 -14.28,6.36 -3.79,4.23 -5.7,10.63 -5.7,19.19 z m 20.17,16.16 c -2.87,0 -5.26,-1.23 -7.17,-3.71 -1.91,-2.48 -2.87,-7.01 -2.87,-13.62 0,-6 0.96,-10.24 2.89,-12.67 1.93,-2.46 4.32,-3.69 7.15,-3.69 2.92,0 5.33,1.23 7.24,3.71 1.91,2.48 2.85,7 2.85,13.55 0,6.06 -0.96,10.31 -2.89,12.74 -1.93,2.46 -4.32,3.69 -7.2,3.69 z m 0.07,-91.19 51.38,99.22 h 9.43 l -51.25,-99.22 z m 40.55,25.55 c 0,6.76 1.69,12.48 5.08,17.17 3.38,4.67 8.32,7.02 14.79,7.02 5.92,0 10.83,-2.1 14.71,-6.31 3.88,-4.22 5.81,-10.42 5.81,-18.58 0,-7.96 -1.95,-14.1 -5.88,-18.4 -3.92,-4.3 -8.79,-6.45 -14.58,-6.45 -5.7,0 -10.44,2.13 -14.23,6.39 -3.8,4.25 -5.7,10.65 -5.7,19.16 z m 20.19,16.17 c -2.91,0 -5.3,-1.23 -7.21,-3.71 -1.91,-2.48 -2.85,-7.02 -2.85,-13.62 0,-5.96 0.96,-10.17 2.89,-12.65 1.91,-2.48 4.28,-3.71 7.11,-3.71 2.96,0 5.37,1.23 7.28,3.71 1.91,2.48 2.85,6.99 2.85,13.55 0,6.05 -0.96,10.31 -2.89,12.74 -1.91,2.46 -4.3,3.69 -7.18,3.69"
       style="fill:#000000;fill-opacity:1;fill-rule:nonzero;stroke:none;stroke-width:0.1"
       id="path26" />
    <path
       d="m -866.76071,3128.132 h 50.19 v 27.12 c 0,10.1 4.14,19.29 10.81,25.99 l 0.02,0.02 0.02,0.02 c 6.7,6.67 15.9,10.81 26,10.81 h 82.67 c 10.14,0 19.36,-4.14 26.03,-10.81 l -0.02,-0.02 c 6.69,-6.7 10.84,-15.91 10.84,-26.01 v -27.12 h 50.18 c 11.23,0 21.43,-4.59 28.82,-11.98 7.39,-7.38 11.98,-17.59 11.98,-28.82 v -555.27 c 0,-11.22 -4.59,-21.43 -11.98,-28.82 -7.39,-7.39 -17.59,-11.98 -28.82,-11.98 h -256.74 c -11.22,0 -21.43,4.59 -28.82,11.98 -7.39,7.39 -11.98,17.6 -11.98,28.82 v 555.27 c 0,11.23 4.59,21.44 11.98,28.82 7.39,7.39 17.6,11.98 28.82,11.98 z m 60.14,-19.9 h -60.14 c -5.73,0 -10.96,-2.36 -14.75,-6.15 -3.79,-3.79 -6.14,-9.01 -6.14,-14.75 v -555.27 c 0,-5.73 2.35,-10.96 6.14,-14.75 3.79,-3.79 9.02,-6.14 14.75,-6.14 h 256.74 c 5.74,0 10.96,2.35 14.75,6.14 3.79,3.79 6.15,9.02 6.15,14.75 v 555.27 c 0,5.74 -2.36,10.96 -6.15,14.75 -3.79,3.79 -9.01,6.15 -14.75,6.15 h -60.13 c -6.19,-0.12 -10.35,-1.01 -10.03,6.96 0.03,0.69 0.06,1.36 0.07,2.05 0,0.31 0,0.63 0,0.94 v 37.07 c 0,4.67 -1.89,8.91 -4.94,11.96 h -0.04 c -3.08,3.07 -7.31,4.98 -11.96,4.98 h -82.67 c -4.68,0 -8.91,-1.89 -11.96,-4.95 l -0.04,-0.03 c -3.05,-3.05 -4.95,-7.29 -4.95,-11.96 v -37.07 c 0.1,-7.29 0.87,-10.46 -7.97,-10 -0.49,0.03 -0.96,0.04 -1.46,0.05 h -0.52"
       style="fill:#000000;fill-opacity:1;fill-rule:nonzero;stroke:none;stroke-width:0.1"
       id="path98" />
    <path
       d="m -765.47071,2677.182 44.02,164.63 h -67.95 l 58.49,164.36 -29.9,-131.82 h 73.44 l -78.1,-197.17"
       style="fill:#000000;fill-opacity:1;fill-rule:evenodd;stroke:none;stroke-width:0.1"
       id="path100" />
    <path
       d="m -765.47071,2677.182 44.02,164.63 h -67.95 l 58.49,164.36 -29.9,-131.82 h 73.44 z"
       style="fill:none;stroke:#000000;stroke-width:0.50003;stroke-linecap:butt;stroke-linejoin:miter;stroke-miterlimit:2.61313;stroke-dasharray:none;stroke-opacity:1"
       id="path102" />
    <path
       d="m -866.40071,2615.502 h 256.68 c 4.68,0 8.5,-3.83 8.5,-8.5 v -75.79 c 0,-4.68 -3.82,-8.5 -8.5,-8.5 h -256.68 c -4.67,0 -8.5,3.82 -8.5,8.5 v 75.79 c 0,4.67 3.83,8.5 8.5,8.5"
       style="fill:#ffcc00;fill-opacity:1;fill-rule:evenodd;stroke:none;stroke-width:0.1"
       id="path104" />
  </g>
</svg>
