<?xml version="1.0" encoding="UTF-8" standalone="no"?>
<!-- Created with Inkscape (http://www.inkscape.org/) -->

<svg
   version="1.1"
   id="svg2"
   width="1200"
   height="1200"
   viewBox="0 0 1200 1200"
   sodipodi:docname="vecteezy_battery-level-icon-set-vector-illustration_11949419-0.eps"
   xmlns:inkscape="http://www.inkscape.org/namespaces/inkscape"
   xmlns:sodipodi="http://sodipodi.sourceforge.net/DTD/sodipodi-0.dtd"
   xmlns="http://www.w3.org/2000/svg"
   xmlns:svg="http://www.w3.org/2000/svg">
  <defs
     id="defs6" />
  <sodipodi:namedview
     id="namedview4"
     pagecolor="#ffffff"
     bordercolor="#000000"
     borderopacity="0.25"
     inkscape:showpageshadow="2"
     inkscape:pageopacity="0.0"
     inkscape:pagecheckerboard="0"
     inkscape:deskcolor="#d1d1d1"
     showgrid="false" />
  <g
     id="g10"
     inkscape:groupmode="layer"
     inkscape:label="Page 1"
     transform="matrix(1.3333333,0,0,-1.3333333,1550.8387,4299.2685)">
    <path
       d="m -808.97749,2355.9983 h -11.58 v 73.728 c -2.79,-2.675 -6.45,-5.329 -10.97,-7.982 -4.51,-2.654 -8.59,-4.649 -12.19,-5.965 v 11.184 c 6.47,3.026 12.13,6.711 16.97,11.053 4.85,4.32 8.29,8.509 10.31,12.587 h 7.46 v -94.605"
       style="fill:#000000;fill-opacity:1;fill-rule:nonzero;stroke:none;stroke-width:0.1"
       id="path76" />
    <path
       d="m -779.21749,2402.4893 c 0,11.119 1.14,20.11 3.42,26.908 2.3,6.821 5.7,12.062 10.22,15.724 4.49,3.662 10.17,5.482 17.01,5.482 5.05,0 9.48,-1.008 13.32,-3.048 3.81,-2.039 6.97,-4.978 9.43,-8.816 2.45,-3.816 4.38,-8.487 5.78,-13.991 1.43,-5.504 2.13,-12.939 2.13,-22.259 0,-11.052 -1.14,-20 -3.4,-26.798 -2.26,-6.82 -5.65,-12.061 -10.17,-15.746 -4.5,-3.684 -10.2,-5.526 -17.09,-5.526 -9.05,0 -16.18,3.224 -21.36,9.693 -6.2,7.895 -9.29,20.68 -9.29,38.377 z m 11.84,-0.043 c 0,-15.505 1.8,-25.812 5.42,-30.899 3.61,-5.11 8.09,-7.654 13.39,-7.654 5.31,0 9.78,2.566 13.4,7.675 3.62,5.132 5.42,15.417 5.42,30.878 0,15.504 -1.8,25.811 -5.42,30.899 -3.59,5.109 -8.11,7.653 -13.53,7.653 -5.3,0 -9.56,-2.259 -12.74,-6.754 -3.97,-5.724 -5.94,-16.338 -5.94,-31.798"
       style="fill:#000000;fill-opacity:1;fill-rule:nonzero;stroke:none;stroke-width:0.1"
       id="path78" />
    <path
       d="m -706.03749,2402.4893 c 0,11.119 1.14,20.11 3.42,26.908 2.3,6.821 5.7,12.062 10.22,15.724 4.49,3.662 10.17,5.482 17.01,5.482 5.05,0 9.48,-1.008 13.32,-3.048 3.81,-2.039 6.97,-4.978 9.43,-8.816 2.45,-3.816 4.38,-8.487 5.78,-13.991 1.43,-5.504 2.13,-12.939 2.13,-22.259 0,-11.052 -1.14,-20 -3.4,-26.798 -2.26,-6.82 -5.66,-12.061 -10.17,-15.746 -4.5,-3.684 -10.2,-5.526 -17.09,-5.526 -9.05,0 -16.18,3.224 -21.36,9.693 -6.2,7.895 -9.29,20.68 -9.29,38.377 z m 11.84,-0.043 c 0,-15.505 1.8,-25.812 5.41,-30.899 3.62,-5.11 8.1,-7.654 13.4,-7.654 5.31,0 9.78,2.566 13.4,7.675 3.62,5.132 5.42,15.417 5.42,30.878 0,15.504 -1.8,25.811 -5.42,30.899 -3.59,5.109 -8.11,7.653 -13.53,7.653 -5.3,0 -9.56,-2.259 -12.74,-6.754 -3.97,-5.724 -5.94,-16.338 -5.94,-31.798"
       style="fill:#000000;fill-opacity:1;fill-rule:nonzero;stroke:none;stroke-width:0.1"
       id="path80" />
    <path
       d="m -630.75749,2427.5993 c 0,6.71 1.69,12.434 5.09,17.127 3.4,4.715 8.31,7.062 14.76,7.062 5.92,0 10.83,-2.106 14.71,-6.316 3.88,-4.211 5.84,-10.417 5.84,-18.575 0,-7.96 -1.98,-14.101 -5.9,-18.399 -3.93,-4.298 -8.78,-6.447 -14.52,-6.447 -5.72,0 -10.48,2.127 -14.28,6.36 -3.79,4.232 -5.7,10.636 -5.7,19.188 z m 20.18,16.162 c -2.88,0 -5.27,-1.228 -7.17,-3.706 -1.91,-2.478 -2.88,-7.017 -2.88,-13.618 0,-6.009 0.97,-10.241 2.9,-12.676 1.93,-2.456 4.32,-3.684 7.15,-3.684 2.91,0 5.33,1.228 7.23,3.706 1.91,2.478 2.85,6.996 2.85,13.553 0,6.053 -0.96,10.307 -2.89,12.741 -1.93,2.456 -4.32,3.684 -7.19,3.684 z m 0.06,-91.184 51.38,99.211 h 9.43 l -51.25,-99.211 z m 40.55,25.548 c 0,6.755 1.69,12.479 5.09,17.171 3.38,4.672 8.31,7.018 14.78,7.018 5.92,0 10.83,-2.105 14.71,-6.316 3.89,-4.21 5.82,-10.417 5.82,-18.575 0,-7.96 -1.96,-14.1 -5.88,-18.399 -3.93,-4.298 -8.8,-6.447 -14.59,-6.447 -5.7,0 -10.43,2.127 -14.23,6.382 -3.79,4.254 -5.7,10.658 -5.7,19.166 z m 20.2,16.163 c -2.92,0 -5.31,-1.229 -7.22,-3.707 -1.9,-2.477 -2.85,-7.017 -2.85,-13.618 0,-5.965 0.97,-10.175 2.9,-12.653 1.9,-2.478 4.27,-3.707 7.1,-3.707 2.96,0 5.38,1.229 7.28,3.707 1.91,2.478 2.85,6.995 2.85,13.552 0,6.053 -0.96,10.307 -2.89,12.742 -1.91,2.455 -4.3,3.684 -7.17,3.684"
       style="fill:#000000;fill-opacity:1;fill-rule:nonzero;stroke:none;stroke-width:0.1"
       id="path82" />
    <path
       d="m -844.46749,3130.3603 h 50.18 v 27.113 c 0,10.1 4.15,19.299 10.82,25.993 l 0.02,0.019 0.02,0.02 c 6.69,6.676 15.89,10.816 25.99,10.816 h 82.68 c 10.14,0 19.35,-4.143 26.03,-10.816 l -0.02,-0.02 c 6.68,-6.695 10.83,-15.903 10.83,-26.012 v -27.113 h 50.19 c 11.23,0 21.43,-4.588 28.82,-11.978 7.39,-7.389 11.98,-17.593 11.98,-28.822 v -555.268 c 0,-11.229 -4.59,-21.433 -11.98,-28.822 -7.39,-7.389 -17.59,-11.978 -28.82,-11.978 h -256.74 c -11.23,0 -21.43,4.589 -28.82,11.978 -7.39,7.389 -11.98,17.593 -11.98,28.822 v 555.268 c 0,11.229 4.59,21.433 11.98,28.822 7.39,7.39 17.59,11.978 28.82,11.978 z m 60.14,-19.903 h -60.14 c -5.74,0 -10.96,-2.355 -14.75,-6.146 -3.79,-3.79 -6.15,-9.014 -6.15,-14.751 v -555.268 c 0,-5.736 2.36,-10.961 6.15,-14.751 3.79,-3.791 9.01,-6.146 14.75,-6.146 h 256.74 c 5.73,0 10.96,2.355 14.75,6.146 3.79,3.79 6.14,9.015 6.14,14.751 v 555.268 c 0,5.737 -2.35,10.961 -6.14,14.751 -3.79,3.791 -9.02,6.146 -14.75,6.146 h -60.14 c -6.19,-0.116 -10.35,-1.007 -10.02,6.965 0.03,0.689 0.06,1.354 0.07,2.044 0,0.314 0,0.629 0,0.943 v 37.064 c 0,4.676 -1.89,8.911 -4.94,11.961 h -0.04 c -3.08,3.075 -7.31,4.984 -11.96,4.984 h -82.68 c -4.67,0 -8.91,-1.895 -11.96,-4.946 l -0.04,-0.038 c -3.05,-3.05 -4.94,-7.285 -4.94,-11.961 v -37.064 c 0.09,-7.291 0.87,-10.462 -7.97,-10.001 -0.5,0.026 -0.97,0.041 -1.46,0.049 h -0.52"
       style="fill:#000000;fill-opacity:1;fill-rule:nonzero;stroke:none;stroke-width:0.1"
       id="path170" />
    <path
       d="m -865.36749,3089.5603 v -555.268 c 0,-5.737 2.36,-10.961 6.15,-14.751 3.79,-3.791 9.01,-6.146 14.75,-6.146 h 256.74 c 5.73,0 10.96,2.355 14.75,6.146 3.79,3.79 6.14,9.014 6.14,14.751 v 555.268 c 0,5.737 -2.35,10.961 -6.14,14.751 -3.79,3.791 -9.02,6.146 -14.75,6.146 h -60.14 c -6.19,-0.116 -10.35,-1.007 -10.02,6.965 0.03,0.689 0.06,1.355 0.07,2.044 v 0.943 37.064 c 0,4.676 -1.89,8.911 -4.94,11.961 h -0.04 c -3.08,3.076 -7.31,4.984 -11.96,4.984 h -82.68 c -4.67,0 -8.91,-1.895 -11.96,-4.945 l -0.04,-0.039 c -3.05,-3.05 -4.94,-7.285 -4.94,-11.961 v -37.064 c 0.09,-7.291 0.87,-10.462 -7.97,-10.001 l -1.46,0.049 h -0.52 -60.14 c -5.74,0 -10.96,-2.355 -14.75,-6.146 -3.79,-3.79 -6.15,-9.014 -6.15,-14.751"
       style="fill:#00ff00;fill-opacity:1;fill-rule:evenodd;stroke:none;stroke-width:0.1"
       id="path172" />
    <path
       d="m -865.36749,3089.5603 v -555.268 c 0,-5.737 2.36,-10.961 6.15,-14.751 3.79,-3.791 9.01,-6.146 14.75,-6.146 h 256.74 c 5.73,0 10.96,2.355 14.75,6.146 3.79,3.79 6.14,9.014 6.14,14.751 v 555.268 c 0,5.737 -2.35,10.961 -6.14,14.751 -3.79,3.791 -9.02,6.146 -14.75,6.146 h -60.14 c -6.19,-0.116 -10.35,-1.007 -10.02,6.965 0.03,0.689 0.06,1.355 0.07,2.044 v 0.943 37.064 c 0,4.676 -1.89,8.911 -4.94,11.961 h -0.04 c -3.08,3.076 -7.31,4.984 -11.96,4.984 h -82.68 c -4.67,0 -8.91,-1.895 -11.96,-4.945 l -0.04,-0.039 c -3.05,-3.05 -4.94,-7.285 -4.94,-11.961 v -37.064 c 0.09,-7.291 0.87,-10.462 -7.97,-10.001 l -1.46,0.049 h -0.52 -60.14 c -5.74,0 -10.96,-2.355 -14.75,-6.146 -3.79,-3.79 -6.15,-9.014 -6.15,-14.751 z"
       style="fill:none;stroke:#000000;stroke-width:0.50003;stroke-linecap:butt;stroke-linejoin:miter;stroke-miterlimit:2.61313;stroke-dasharray:none;stroke-opacity:1"
       id="path174" />
    <path
       d="m -743.18749,2710.9023 44.03,164.63 h -67.96 l 58.49,164.363 -29.89,-131.82 h 73.43 l -78.1,-197.173"
       style="fill:#000000;fill-opacity:1;fill-rule:evenodd;stroke:none;stroke-width:0.1"
       id="path176" />
    <path
       d="m -743.18749,2710.9023 44.03,164.63 h -67.96 l 58.49,164.363 -29.89,-131.82 h 73.43 z"
       style="fill:none;stroke:#000000;stroke-width:0.50003;stroke-linecap:butt;stroke-linejoin:miter;stroke-miterlimit:2.61313;stroke-dasharray:none;stroke-opacity:1"
       id="path178" />
  </g>
</svg>
