<?xml version="1.0" encoding="UTF-8" standalone="no"?>
<!-- Created with Inkscape (http://www.inkscape.org/) -->

<svg
   version="1.1"
   id="svg2"
   width="1200"
   height="1200"
   viewBox="0 0 1200 1200"
   sodipodi:docname="vecteezy_battery-level-icon-set-vector-illustration_11949419-0.eps"
   xmlns:inkscape="http://www.inkscape.org/namespaces/inkscape"
   xmlns:sodipodi="http://sodipodi.sourceforge.net/DTD/sodipodi-0.dtd"
   xmlns="http://www.w3.org/2000/svg"
   xmlns:svg="http://www.w3.org/2000/svg">
  <defs
     id="defs6" />
  <sodipodi:namedview
     id="namedview4"
     pagecolor="#ffffff"
     bordercolor="#000000"
     borderopacity="0.25"
     inkscape:showpageshadow="2"
     inkscape:pageopacity="0.0"
     inkscape:pagecheckerboard="0"
     inkscape:deskcolor="#d1d1d1"
     showgrid="false" />
  <g
     id="g10"
     inkscape:groupmode="layer"
     inkscape:label="Page 1"
     transform="matrix(1.3333333,0,0,-1.3333333,1550.8387,4299.2685)">
    <path
       d="m -860.35483,2372.6963 11.58,1.57 c 1.34,-6.57 3.57,-11.31 6.75,-14.21 3.18,-2.89 7.09,-4.34 11.71,-4.34 5.49,0 10.11,1.89 13.84,5.66 3.73,3.77 5.59,8.44 5.59,14.01 0,5.31 -1.73,9.7 -5.22,13.16 -3.46,3.44 -7.87,5.18 -13.24,5.18 -2.19,0 -4.91,-0.44 -8.18,-1.3 l 1.29,10.13 c 0.77,-0.08 1.41,-0.13 1.87,-0.13 4.95,0 9.38,1.3 13.35,3.86 3.95,2.57 5.92,6.51 5.92,11.84 0,4.24 -1.44,7.75 -4.32,10.53 -2.87,2.79 -6.58,4.17 -11.11,4.17 -4.52,0 -8.27,-1.43 -11.28,-4.28 -3,-2.85 -4.93,-7.13 -5.79,-12.83 l -11.58,2.11 c 1.43,7.76 4.63,13.79 9.65,18.07 5,4.27 11.25,6.4 18.71,6.4 5.13,0 9.87,-1.1 14.19,-3.31 4.34,-2.19 7.65,-5.2 9.93,-8.99 2.31,-3.82 3.45,-7.85 3.45,-12.13 0,-4.06 -1.1,-7.74 -3.27,-11.07 -2.19,-3.34 -5.44,-5.99 -9.72,-7.96 5.57,-1.28 9.89,-3.95 12.99,-8.01 3.07,-4.03 4.6,-9.12 4.6,-15.2 0,-8.22 -3,-15.21 -8.99,-20.94 -6.01,-5.72 -13.6,-8.57 -22.76,-8.57 -8.27,0 -15.13,2.47 -20.6,7.41 -5.48,4.93 -8.59,11.31 -9.36,19.17"
       style="fill:#000000;fill-opacity:1;fill-rule:nonzero;stroke:none;stroke-width:0.1"
       id="path34" />
    <path
       d="m -787.17483,2394.1863 c 0,11.12 1.14,20.11 3.42,26.9 2.3,6.83 5.7,12.07 10.22,15.73 4.5,3.66 10.18,5.48 17.02,5.48 5.04,0 9.47,-1.01 13.31,-3.05 3.82,-2.04 6.97,-4.98 9.43,-8.81 2.46,-3.82 4.39,-8.49 5.79,-13.99 1.42,-5.51 2.13,-12.94 2.13,-22.26 0,-11.06 -1.14,-20 -3.4,-26.8 -2.26,-6.82 -5.66,-12.06 -10.18,-15.75 -4.49,-3.68 -10.2,-5.52 -17.08,-5.52 -9.06,0 -16.19,3.22 -21.36,9.69 -6.21,7.89 -9.3,20.68 -9.3,38.38 z m 11.84,-0.05 c 0,-15.5 1.8,-25.81 5.42,-30.9 3.62,-5.11 8.09,-7.65 13.4,-7.65 5.31,0 9.78,2.57 13.4,7.68 3.62,5.13 5.41,15.41 5.41,30.87 0,15.51 -1.79,25.81 -5.41,30.9 -3.6,5.11 -8.12,7.66 -13.53,7.66 -5.31,0 -9.56,-2.26 -12.74,-6.76 -3.97,-5.72 -5.95,-16.34 -5.95,-31.8"
       style="fill:#000000;fill-opacity:1;fill-rule:nonzero;stroke:none;stroke-width:0.1"
       id="path36" />
    <path
       d="m -711.88483,2419.2963 c 0,6.71 1.68,12.43 5.08,17.12 3.4,4.72 8.31,7.07 14.76,7.07 5.92,0 10.84,-2.11 14.72,-6.32 3.88,-4.21 5.83,-10.42 5.83,-18.58 0,-7.96 -1.97,-14.1 -5.9,-18.39 -3.92,-4.3 -8.77,-6.45 -14.52,-6.45 -5.72,0 -10.48,2.13 -14.27,6.36 -3.8,4.23 -5.7,10.63 -5.7,19.19 z m 20.17,16.16 c -2.87,0 -5.26,-1.23 -7.17,-3.71 -1.91,-2.48 -2.87,-7.01 -2.87,-13.62 0,-6 0.96,-10.24 2.89,-12.67 1.93,-2.46 4.32,-3.69 7.15,-3.69 2.92,0 5.33,1.23 7.24,3.71 1.91,2.48 2.85,7 2.85,13.55 0,6.06 -0.97,10.31 -2.9,12.74 -1.93,2.46 -4.32,3.69 -7.19,3.69 z m 0.07,-91.19 51.38,99.22 h 9.43 l -51.25,-99.22 z m 40.54,25.55 c 0,6.76 1.69,12.48 5.09,17.17 3.38,4.68 8.31,7.02 14.78,7.02 5.92,0 10.84,-2.1 14.72,-6.31 3.88,-4.21 5.81,-10.42 5.81,-18.58 0,-7.96 -1.95,-14.1 -5.88,-18.4 -3.92,-4.3 -8.79,-6.45 -14.58,-6.45 -5.7,0 -10.44,2.13 -14.23,6.39 -3.8,4.25 -5.71,10.65 -5.71,19.16 z m 20.2,16.17 c -2.91,0 -5.3,-1.23 -7.21,-3.71 -1.91,-2.48 -2.85,-7.02 -2.85,-13.62 0,-5.96 0.96,-10.17 2.89,-12.65 1.91,-2.48 4.28,-3.71 7.11,-3.71 2.96,0 5.37,1.23 7.28,3.71 1.91,2.48 2.85,6.99 2.85,13.55 0,6.05 -0.97,10.31 -2.9,12.74 -1.9,2.46 -4.29,3.69 -7.17,3.69"
       style="fill:#000000;fill-opacity:1;fill-rule:nonzero;stroke:none;stroke-width:0.1"
       id="path38" />
    <path
       d="m -887.83483,3124.7763 h 50.19 v 27.12 c 0,10.1 4.14,19.29 10.81,25.99 l 0.02,0.02 0.02,0.02 c 6.7,6.67 15.9,10.81 26,10.81 h 82.67 c 10.14,0 19.36,-4.14 26.03,-10.81 l -0.02,-0.02 c 6.69,-6.7 10.84,-15.91 10.84,-26.01 v -27.12 h 50.18 c 11.23,0 21.43,-4.59 28.82,-11.98 7.39,-7.38 11.98,-17.59 11.98,-28.82 v -555.27 c 0,-11.22 -4.59,-21.43 -11.98,-28.82 -7.39,-7.39 -17.59,-11.98 -28.82,-11.98 h -256.74 c -11.23,0 -21.43,4.59 -28.82,11.98 -7.39,7.39 -11.98,17.6 -11.98,28.82 v 555.27 c 0,11.23 4.59,21.44 11.98,28.82 7.39,7.39 17.59,11.98 28.82,11.98 z m 60.14,-19.9 h -60.14 c -5.73,0 -10.96,-2.36 -14.75,-6.15 -3.79,-3.79 -6.14,-9.01 -6.14,-14.75 v -555.27 c 0,-5.73 2.35,-10.96 6.14,-14.75 3.79,-3.79 9.02,-6.14 14.75,-6.14 h 256.74 c 5.74,0 10.96,2.35 14.75,6.14 3.79,3.79 6.15,9.02 6.15,14.75 v 555.27 c 0,5.74 -2.36,10.96 -6.15,14.75 -3.79,3.79 -9.01,6.15 -14.75,6.15 h -60.13 c -6.19,-0.12 -10.35,-1.01 -10.03,6.96 0.03,0.69 0.06,1.36 0.07,2.05 0,0.31 0,0.63 0,0.94 v 37.07 c 0,4.67 -1.89,8.91 -4.94,11.96 h -0.04 c -3.08,3.07 -7.31,4.98 -11.96,4.98 h -82.67 c -4.68,0 -8.92,-1.89 -11.96,-4.95 l -0.04,-0.03 c -3.05,-3.05 -4.95,-7.29 -4.95,-11.96 v -37.07 c 0.1,-7.29 0.87,-10.46 -7.97,-10 -0.49,0.03 -0.96,0.04 -1.46,0.05 h -0.52"
       style="fill:#000000;fill-opacity:1;fill-rule:nonzero;stroke:none;stroke-width:0.1"
       id="path114" />
    <path
       d="m -873.23483,2769.9263 h 227.54 c 12.69,0 23.07,-10.38 23.07,-23.07 v -205.62 c 0,-12.69 -10.38,-23.07 -23.07,-23.07 h -227.54 c -12.69,0 -23.07,10.38 -23.07,23.07 v 205.62 c 0,12.69 10.38,23.07 23.07,23.07"
       style="fill:#00ff00;fill-opacity:1;fill-rule:evenodd;stroke:none;stroke-width:0.1"
       id="path116" />
    <path
       d="m -786.54483,2673.8263 44.02,164.63 h -67.95 l 58.49,164.36 -29.9,-131.82 h 73.44 l -78.1,-197.17"
       style="fill:#000000;fill-opacity:1;fill-rule:evenodd;stroke:none;stroke-width:0.1"
       id="path118" />
    <path
       d="m -786.54483,2673.8263 44.02,164.63 h -67.95 l 58.49,164.36 -29.9,-131.82 h 73.44 z"
       style="fill:none;stroke:#000000;stroke-width:0.50003;stroke-linecap:butt;stroke-linejoin:miter;stroke-miterlimit:2.61313;stroke-dasharray:none;stroke-opacity:1"
       id="path120" />
  </g>
</svg>
