<?xml version="1.0" encoding="UTF-8" standalone="no"?>
<!-- Created with Inkscape (http://www.inkscape.org/) -->

<svg
   version="1.1"
   id="svg2"
   width="1200"
   height="1200"
   viewBox="0 0 1200 1200"
   sodipodi:docname="vecteezy_battery-level-icon-set-vector-illustration_11949419-0.eps"
   xmlns:inkscape="http://www.inkscape.org/namespaces/inkscape"
   xmlns:sodipodi="http://sodipodi.sourceforge.net/DTD/sodipodi-0.dtd"
   xmlns="http://www.w3.org/2000/svg"
   xmlns:svg="http://www.w3.org/2000/svg">
  <defs
     id="defs6" />
  <sodipodi:namedview
     id="namedview4"
     pagecolor="#ffffff"
     bordercolor="#000000"
     borderopacity="0.25"
     inkscape:showpageshadow="2"
     inkscape:pageopacity="0.0"
     inkscape:pagecheckerboard="0"
     inkscape:deskcolor="#d1d1d1"
     showgrid="false" />
  <g
     id="g10"
     inkscape:groupmode="layer"
     inkscape:label="Page 1"
     transform="matrix(1.3333333,0,0,-1.3333333,1550.8387,4299.2685)">
    <path
       d="m -844.06307,2365.2551 12.105,0.921 c 0.899,-5.899 2.983,-10.329 6.228,-13.311 3.246,-2.96 7.215,-4.452 11.886,-4.452 5.636,0 10.351,2.105 14.189,6.294 3.816,4.211 5.724,9.78 5.724,16.711 0,6.601 -1.821,11.798 -5.483,15.614 -3.662,3.815 -8.509,5.723 -14.54,5.723 -3.75,0 -7.105,-0.855 -10.087,-2.566 -2.961,-1.71 -5.285,-3.925 -6.996,-6.645 l -10.921,1.58 9.079,48.421 h 46.711 v -11.053 h -37.479 l -5.021,-25.417 c 5.636,3.969 11.557,5.943 17.741,5.943 8.202,0 15.132,-2.85 20.767,-8.552 5.637,-5.702 8.465,-13.027 8.465,-21.974 0,-8.53 -2.478,-15.899 -7.434,-22.105 -6.031,-7.632 -14.276,-11.448 -24.715,-11.448 -8.553,0 -15.526,2.413 -20.943,7.215 -5.417,4.803 -8.509,11.163 -9.276,19.101"
       style="fill:#000000;fill-opacity:1;fill-rule:nonzero;stroke:none;stroke-width:0.1"
       id="path46" />
    <path
       d="m -770.88307,2387.0101 c 0,11.118 1.14,20.109 3.42,26.908 2.303,6.82 5.702,12.061 10.22,15.723 4.496,3.662 10.175,5.483 17.018,5.483 5.043,0 9.473,-1.009 13.311,-3.049 3.816,-2.039 6.974,-4.978 9.43,-8.816 2.456,-3.815 4.386,-8.486 5.789,-13.99 1.425,-5.505 2.127,-12.939 2.127,-22.259 0,-11.053 -1.14,-20 -3.398,-26.799 -2.259,-6.82 -5.659,-12.061 -10.176,-15.745 -4.496,-3.684 -10.197,-5.527 -17.083,-5.527 -9.057,0 -16.184,3.224 -21.36,9.693 -6.206,7.895 -9.298,20.68 -9.298,38.378 z m 11.842,-0.044 c 0,-15.505 1.798,-25.812 5.416,-30.899 3.619,-5.11 8.093,-7.654 13.4,-7.654 5.307,0 9.78,2.566 13.399,7.676 3.618,5.131 5.417,15.416 5.417,30.877 0,15.504 -1.799,25.811 -5.417,30.899 -3.597,5.11 -8.115,7.653 -13.531,7.653 -5.307,0 -9.561,-2.259 -12.741,-6.754 -3.97,-5.724 -5.943,-16.338 -5.943,-31.798"
       style="fill:#000000;fill-opacity:1;fill-rule:nonzero;stroke:none;stroke-width:0.1"
       id="path48" />
    <path
       d="m -695.59807,2412.1191 c 0,6.711 1.688,12.434 5.087,17.127 3.403,4.715 8.313,7.062 14.763,7.062 5.92,0 10.83,-2.105 14.71,-6.316 3.88,-4.21 5.83,-10.417 5.83,-18.574 0,-7.961 -1.97,-14.102 -5.89,-18.4 -3.93,-4.298 -8.78,-6.447 -14.52,-6.447 -5.73,0 -10.48,2.127 -14.279,6.36 -3.793,4.232 -5.701,10.636 -5.701,19.188 z m 20.18,16.163 c -2.88,0 -5.27,-1.229 -7.18,-3.707 -1.9,-2.478 -2.87,-7.017 -2.87,-13.618 0,-6.009 0.97,-10.241 2.9,-12.675 1.93,-2.457 4.32,-3.685 7.15,-3.685 2.91,0 5.32,1.228 7.23,3.706 1.91,2.479 2.85,6.996 2.85,13.553 0,6.053 -0.96,10.307 -2.89,12.742 -1.93,2.455 -4.32,3.684 -7.19,3.684 z m 0.06,-91.185 51.38,99.211 h 9.43 l -51.25,-99.211 z m 40.55,25.549 c 0,6.754 1.69,12.478 5.09,17.171 3.37,4.671 8.31,7.017 14.78,7.017 5.92,0 10.83,-2.105 14.71,-6.316 3.88,-4.21 5.81,-10.417 5.81,-18.574 0,-7.961 -1.95,-14.101 -5.87,-18.399 -3.93,-4.299 -8.8,-6.448 -14.59,-6.448 -5.7,0 -10.44,2.128 -14.23,6.382 -3.79,4.255 -5.7,10.658 -5.7,19.167 z m 20.2,16.162 c -2.92,0 -5.31,-1.228 -7.22,-3.707 -1.91,-2.477 -2.85,-7.017 -2.85,-13.617 0,-5.965 0.97,-10.176 2.9,-12.654 1.9,-2.478 4.27,-3.706 7.1,-3.706 2.96,0 5.37,1.228 7.28,3.706 1.91,2.478 2.85,6.995 2.85,13.552 0,6.053 -0.96,10.307 -2.89,12.742 -1.91,2.456 -4.3,3.684 -7.17,3.684"
       style="fill:#000000;fill-opacity:1;fill-rule:nonzero;stroke:none;stroke-width:0.1"
       id="path50" />
    <path
       d="m -868.24307,3129.4781 h 50.183 v 27.114 c 0,10.099 4.141,19.299 10.817,25.992 l 0.02,0.019 0.019,0.02 c 6.693,6.676 15.892,10.816 25.991,10.816 h 82.675 c 10.14,0 19.36,-4.143 26.03,-10.816 l -0.02,-0.02 c 6.69,-6.695 10.84,-15.902 10.84,-26.011 v -27.114 h 50.18 c 11.23,0 21.43,-4.588 28.82,-11.977 7.39,-7.39 11.98,-17.594 11.98,-28.823 v -555.268 c 0,-11.229 -4.59,-21.433 -11.98,-28.822 -7.39,-7.389 -17.59,-11.978 -28.82,-11.978 h -256.735 c -11.23,0 -21.434,4.589 -28.823,11.978 -7.389,7.389 -11.978,17.593 -11.978,28.822 v 555.268 c 0,11.229 4.589,21.433 11.978,28.823 7.389,7.389 17.593,11.977 28.823,11.977 z m 60.135,-19.903 h -60.135 c -5.737,0 -10.962,-2.355 -14.752,-6.145 -3.791,-3.791 -6.146,-9.015 -6.146,-14.752 v -555.268 c 0,-5.736 2.355,-10.96 6.146,-14.751 3.79,-3.791 9.015,-6.146 14.752,-6.146 h 256.735 c 5.74,0 10.96,2.355 14.75,6.146 3.79,3.791 6.15,9.015 6.15,14.751 v 555.268 c 0,5.737 -2.36,10.961 -6.15,14.752 -3.79,3.79 -9.01,6.145 -14.75,6.145 h -60.13 c -6.19,-0.116 -10.35,-1.007 -10.03,6.966 0.03,0.688 0.06,1.353 0.07,2.043 0,0.314 0,0.629 0,0.943 v 37.065 c 0,4.675 -1.89,8.91 -4.94,11.96 h -0.04 c -3.076,3.076 -7.31,4.984 -11.96,4.984 h -82.675 c -4.675,0 -8.909,-1.894 -11.959,-4.945 l -0.039,-0.039 c -3.052,-3.05 -4.946,-7.285 -4.946,-11.96 v -37.065 c 0.098,-7.29 0.872,-10.461 -7.967,-10.001 -0.496,0.026 -0.965,0.041 -1.461,0.049 h -0.523"
       style="fill:#000000;fill-opacity:1;fill-rule:nonzero;stroke:none;stroke-width:0.1"
       id="path130" />
    <path
       d="m -851.63907,2899.6911 h 223.531 c 13.79,0 25.07,-11.286 25.07,-25.078 v -322.453 c 0,-13.793 -11.28,-25.078 -25.07,-25.078 h -223.531 c -13.793,0 -25.078,11.285 -25.078,25.078 v 322.453 c 0,13.792 11.285,25.078 25.078,25.078"
       style="fill:#00ff00;fill-opacity:1;fill-rule:evenodd;stroke:none;stroke-width:0.1"
       id="path132" />
    <path
       d="m -766.96307,2678.5281 44.029,164.629 h -67.957 l 58.491,164.363 -29.893,-131.819 h 73.434 l -78.104,-197.173"
       style="fill:#000000;fill-opacity:1;fill-rule:evenodd;stroke:none;stroke-width:0.1"
       id="path134" />
    <path
       d="m -766.96307,2678.5281 44.029,164.629 h -67.957 l 58.491,164.363 -29.893,-131.819 h 73.434 z"
       style="fill:none;stroke:#000000;stroke-width:0.50003;stroke-linecap:butt;stroke-linejoin:miter;stroke-miterlimit:2.61313;stroke-dasharray:none;stroke-opacity:1"
       id="path136" />
  </g>
</svg>
