<?xml version="1.0" encoding="UTF-8" standalone="no"?>
<!-- Created with Inkscape (http://www.inkscape.org/) -->

<svg
   version="1.1"
   id="svg2"
   width="1200"
   height="1200"
   viewBox="0 0 1200 1200"
   sodipodi:docname="vecteezy_battery-level-icon-set-vector-illustration_11949419-0.eps"
   xmlns:inkscape="http://www.inkscape.org/namespaces/inkscape"
   xmlns:sodipodi="http://sodipodi.sourceforge.net/DTD/sodipodi-0.dtd"
   xmlns="http://www.w3.org/2000/svg"
   xmlns:svg="http://www.w3.org/2000/svg">
  <defs
     id="defs6" />
  <sodipodi:namedview
     id="namedview4"
     pagecolor="#ffffff"
     bordercolor="#000000"
     borderopacity="0.25"
     inkscape:showpageshadow="2"
     inkscape:pageopacity="0.0"
     inkscape:pagecheckerboard="0"
     inkscape:deskcolor="#d1d1d1"
     showgrid="false" />
  <g
     id="g10"
     inkscape:groupmode="layer"
     inkscape:label="Page 1"
     transform="matrix(1.3333333,0,0,-1.3333333,1550.8387,4299.2685)">
    <path
       d="m -863.73071,2441.9247 v 11.053 h 60.92 v -8.947 c -5.99,-6.382 -11.95,-14.869 -17.83,-25.461 -5.9,-10.592 -10.44,-21.491 -13.66,-32.697 -2.3,-7.873 -3.79,-16.535 -4.43,-25.921 h -11.84 c 0.13,7.412 1.58,16.382 4.36,26.886 2.79,10.526 6.76,20.658 11.95,30.416 5.2,9.759 10.73,17.983 16.58,24.671 h -46.05"
       style="fill:#000000;fill-opacity:1;fill-rule:nonzero;stroke:none;stroke-width:0.1"
       id="path58" />
    <path
       d="m -791.21071,2406.4427 c 0,11.118 1.14,20.11 3.42,26.908 2.31,6.82 5.7,12.061 10.22,15.724 4.5,3.662 10.18,5.482 17.02,5.482 5.04,0 9.47,-1.009 13.31,-3.048 3.82,-2.04 6.98,-4.979 9.43,-8.816 2.46,-3.816 4.39,-8.487 5.79,-13.991 1.43,-5.505 2.13,-12.939 2.13,-22.259 0,-11.053 -1.14,-20 -3.4,-26.799 -2.26,-6.819 -5.66,-12.061 -10.18,-15.745 -4.49,-3.684 -10.19,-5.526 -17.08,-5.526 -9.06,0 -16.18,3.223 -21.36,9.693 -6.21,7.894 -9.3,20.68 -9.3,38.377 z m 11.84,-0.044 c 0,-15.504 1.8,-25.811 5.42,-30.899 3.62,-5.11 8.09,-7.654 13.4,-7.654 5.31,0 9.78,2.566 13.4,7.676 3.62,5.131 5.42,15.417 5.42,30.877 0,15.504 -1.8,25.811 -5.42,30.899 -3.6,5.11 -8.11,7.654 -13.53,7.654 -5.31,0 -9.56,-2.259 -12.74,-6.755 -3.97,-5.723 -5.95,-16.337 -5.95,-31.798"
       style="fill:#000000;fill-opacity:1;fill-rule:nonzero;stroke:none;stroke-width:0.1"
       id="path60" />
    <path
       d="m -715.92071,2431.5527 c 0,6.71 1.69,12.434 5.08,17.127 3.4,4.715 8.32,7.061 14.76,7.061 5.93,0 10.84,-2.105 14.72,-6.316 3.88,-4.21 5.83,-10.416 5.83,-18.574 0,-7.961 -1.97,-14.101 -5.9,-18.399 -3.92,-4.299 -8.77,-6.448 -14.51,-6.448 -5.73,0 -10.49,2.128 -14.28,6.36 -3.79,4.232 -5.7,10.636 -5.7,19.189 z m 20.17,16.162 c -2.87,0 -5.26,-1.228 -7.17,-3.706 -1.91,-2.479 -2.87,-7.018 -2.87,-13.618 0,-6.009 0.96,-10.242 2.89,-12.676 1.93,-2.456 4.32,-3.685 7.15,-3.685 2.92,0 5.33,1.229 7.24,3.707 1.91,2.478 2.85,6.995 2.85,13.552 0,6.053 -0.96,10.307 -2.89,12.742 -1.93,2.456 -4.32,3.684 -7.2,3.684 z m 0.07,-91.185 51.38,99.211 h 9.43 l -51.25,-99.211 z m 40.55,25.549 c 0,6.755 1.69,12.478 5.08,17.171 3.38,4.671 8.32,7.018 14.78,7.018 5.93,0 10.84,-2.106 14.72,-6.316 3.88,-4.211 5.81,-10.417 5.81,-18.575 0,-7.96 -1.95,-14.101 -5.88,-18.399 -3.92,-4.298 -8.79,-6.448 -14.58,-6.448 -5.7,0 -10.44,2.128 -14.23,6.382 -3.8,4.255 -5.7,10.658 -5.7,19.167 z m 20.19,16.162 c -2.91,0 -5.3,-1.228 -7.21,-3.706 -1.91,-2.478 -2.85,-7.017 -2.85,-13.618 0,-5.965 0.96,-10.176 2.89,-12.654 1.91,-2.478 4.28,-3.706 7.11,-3.706 2.96,0 5.37,1.228 7.28,3.706 1.91,2.478 2.85,6.996 2.85,13.553 0,6.052 -0.97,10.307 -2.89,12.741 -1.91,2.456 -4.3,3.684 -7.18,3.684"
       style="fill:#000000;fill-opacity:1;fill-rule:nonzero;stroke:none;stroke-width:0.1"
       id="path62" />
    <path
       d="m -865.99071,3141.3307 h 50.18 v 27.113 c 0,10.1 4.14,19.299 10.82,25.993 l 0.02,0.019 0.02,0.02 c 6.69,6.676 15.89,10.816 25.99,10.816 h 82.67 c 10.14,0 19.36,-4.143 26.03,-10.816 l -0.02,-0.02 c 6.69,-6.695 10.84,-15.903 10.84,-26.012 v -27.113 h 50.18 c 11.23,0 21.44,-4.588 28.83,-11.978 7.38,-7.389 11.97,-17.593 11.97,-28.822 v -555.268 c 0,-11.229 -4.59,-21.433 -11.97,-28.822 -7.39,-7.389 -17.6,-11.978 -28.83,-11.978 h -256.73 c -11.23,0 -21.44,4.589 -28.83,11.978 -7.38,7.389 -11.97,17.593 -11.97,28.822 v 555.268 c 0,11.229 4.59,21.433 11.97,28.822 7.39,7.39 17.6,11.978 28.83,11.978 z m 60.13,-19.903 h -60.13 c -5.74,0 -10.96,-2.355 -14.75,-6.146 -3.8,-3.79 -6.15,-9.014 -6.15,-14.751 v -555.268 c 0,-5.736 2.35,-10.961 6.15,-14.751 3.79,-3.791 9.01,-6.146 14.75,-6.146 h 256.73 c 5.74,0 10.96,2.355 14.76,6.146 3.79,3.79 6.14,9.015 6.14,14.751 v 555.268 c 0,5.737 -2.35,10.961 -6.14,14.751 -3.8,3.791 -9.02,6.146 -14.76,6.146 h -60.13 c -6.19,-0.116 -10.35,-1.007 -10.02,6.965 0.02,0.689 0.06,1.354 0.07,2.044 0,0.314 0,0.629 0,0.943 v 37.064 c 0,4.676 -1.9,8.911 -4.95,11.961 h -0.04 c -3.07,3.075 -7.31,4.984 -11.96,4.984 h -82.67 c -4.68,0 -8.91,-1.895 -11.96,-4.946 l -0.04,-0.038 c -3.05,-3.05 -4.95,-7.285 -4.95,-11.961 v -37.064 c 0.1,-7.291 0.88,-10.462 -7.96,-10.001 -0.5,0.026 -0.97,0.041 -1.47,0.049 h -0.52"
       style="fill:#000000;fill-opacity:1;fill-rule:nonzero;stroke:none;stroke-width:0.1"
       id="path146" />
    <path
       d="m -849.39071,3019.3727 h 223.53 c 13.79,0 25.08,-11.286 25.08,-25.08 v -432.523 c 0,-13.794 -11.29,-25.079 -25.08,-25.079 h -223.53 c -13.79,0 -25.08,11.285 -25.08,25.079 v 432.523 c 0,13.794 11.29,25.08 25.08,25.08"
       style="fill:#00ff00;fill-opacity:1;fill-rule:evenodd;stroke:none;stroke-width:0.1"
       id="path148" />
    <path
       d="m -764.71071,2690.3807 44.03,164.629 h -67.96 l 58.49,164.363 -29.89,-131.819 h 73.43 l -78.1,-197.173"
       style="fill:#000000;fill-opacity:1;fill-rule:evenodd;stroke:none;stroke-width:0.1"
       id="path150" />
    <path
       d="m -764.71071,2690.3807 44.03,164.629 h -67.96 l 58.49,164.363 -29.89,-131.819 h 73.43 z"
       style="fill:none;stroke:#000000;stroke-width:0.50003;stroke-linecap:butt;stroke-linejoin:miter;stroke-miterlimit:2.61313;stroke-dasharray:none;stroke-opacity:1"
       id="path152" />
  </g>
</svg>
