<?xml version="1.0" encoding="UTF-8" standalone="no"?>
<!-- Created with Inkscape (http://www.inkscape.org/) -->

<svg
   version="1.1"
   id="svg2"
   width="1200"
   height="1200"
   viewBox="0 0 1200 1200"
   sodipodi:docname="vecteezy_battery-level-icon-set-vector-illustration_11949419-0.eps"
   xmlns:inkscape="http://www.inkscape.org/namespaces/inkscape"
   xmlns:sodipodi="http://sodipodi.sourceforge.net/DTD/sodipodi-0.dtd"
   xmlns="http://www.w3.org/2000/svg"
   xmlns:svg="http://www.w3.org/2000/svg">
  <defs
     id="defs6" />
  <sodipodi:namedview
     id="namedview4"
     pagecolor="#ffffff"
     bordercolor="#000000"
     borderopacity="0.25"
     inkscape:showpageshadow="2"
     inkscape:pageopacity="0.0"
     inkscape:pagecheckerboard="0"
     inkscape:deskcolor="#d1d1d1"
     showgrid="false" />
  <g
     id="g10"
     inkscape:groupmode="layer"
     inkscape:label="Page 1"
     transform="matrix(1.3333333,0,0,-1.3333333,1550.8387,4299.2685)">
    <path
       d="m -850.4191,2366.1404 11.05,0.922 c 0.95,-5.22 2.74,-8.992 5.4,-11.338 2.65,-2.347 6.05,-3.531 10.22,-3.531 3.55,0 6.66,0.811 9.36,2.456 2.7,1.623 4.89,3.794 6.58,6.536 1.69,2.719 3.11,6.403 4.28,11.03 1.16,4.627 1.73,9.342 1.73,14.145 0,0.504 -0.02,1.294 -0.07,2.325 -2.3,-3.685 -5.46,-6.689 -9.45,-8.97 -3.99,-2.302 -8.33,-3.443 -12.98,-3.443 -7.79,0 -14.36,2.829 -19.76,8.487 -5.37,5.636 -8.07,13.092 -8.07,22.346 0,9.562 2.81,17.237 8.44,23.071 5.62,5.811 12.66,8.728 21.14,8.728 6.1,0 11.69,-1.645 16.78,-4.957 5.07,-3.289 8.9,-7.982 11.53,-14.1 2.64,-6.097 3.95,-14.934 3.95,-26.492 0,-12.039 -1.29,-21.622 -3.9,-28.749 -2.61,-7.15 -6.51,-12.566 -11.67,-16.294 -5.15,-3.728 -11.18,-5.592 -18.11,-5.592 -7.37,0 -13.38,2.039 -18.05,6.14 -4.65,4.101 -7.46,9.868 -8.4,17.28 z m 47.24,41.557 c 0,6.623 -1.76,11.886 -5.27,15.768 -3.48,3.882 -7.74,5.833 -12.74,5.833 -5.17,0 -9.65,-2.083 -13.42,-6.272 -3.79,-4.188 -5.68,-9.627 -5.68,-16.293 0,-5.987 1.8,-10.855 5.38,-14.584 3.59,-3.75 8.07,-5.614 13.39,-5.614 5.36,0 9.74,1.864 13.18,5.614 3.45,3.729 5.16,8.926 5.16,15.548"
       style="fill:#000000;fill-opacity:1;fill-rule:nonzero;stroke:none;stroke-width:0.1"
       id="path70" />
    <path
       d="m -778.9491,2390.7904 c 0,11.118 1.14,20.109 3.42,26.907 2.3,6.821 5.7,12.062 10.22,15.724 4.5,3.662 10.18,5.483 17.02,5.483 5.04,0 9.47,-1.009 13.31,-3.048 3.82,-2.04 6.97,-4.978 9.43,-8.816 2.46,-3.816 4.38,-8.487 5.79,-13.991 1.42,-5.505 2.13,-12.939 2.13,-22.259 0,-11.053 -1.14,-20 -3.4,-26.799 -2.26,-6.82 -5.66,-12.061 -10.18,-15.745 -4.49,-3.684 -10.2,-5.526 -17.08,-5.526 -9.06,0 -16.19,3.223 -21.36,9.692 -6.21,7.895 -9.3,20.68 -9.3,38.378 z m 11.84,-0.044 c 0,-15.504 1.8,-25.811 5.42,-30.899 3.62,-5.11 8.09,-7.654 13.4,-7.654 5.3,0 9.78,2.566 13.4,7.676 3.62,5.131 5.41,15.416 5.41,30.877 0,15.504 -1.79,25.811 -5.41,30.899 -3.6,5.109 -8.12,7.653 -13.53,7.653 -5.31,0 -9.57,-2.258 -12.75,-6.754 -3.96,-5.724 -5.94,-16.338 -5.94,-31.798"
       style="fill:#000000;fill-opacity:1;fill-rule:nonzero;stroke:none;stroke-width:0.1"
       id="path72" />
    <path
       d="m -703.6691,2415.8994 c 0,6.711 1.69,12.434 5.09,17.128 3.4,4.715 8.31,7.061 14.76,7.061 5.92,0 10.83,-2.105 14.72,-6.316 3.88,-4.21 5.83,-10.417 5.83,-18.575 0,-7.96 -1.97,-14.1 -5.9,-18.399 -3.92,-4.298 -8.77,-6.447 -14.52,-6.447 -5.72,0 -10.48,2.127 -14.27,6.36 -3.8,4.232 -5.71,10.636 -5.71,19.188 z m 20.18,16.163 c -2.87,0 -5.26,-1.229 -7.17,-3.707 -1.91,-2.478 -2.87,-7.017 -2.87,-13.618 0,-6.009 0.96,-10.241 2.89,-12.675 1.93,-2.456 4.32,-3.685 7.15,-3.685 2.92,0 5.33,1.229 7.24,3.706 1.91,2.479 2.85,6.996 2.85,13.553 0,6.053 -0.97,10.307 -2.9,12.742 -1.93,2.455 -4.32,3.684 -7.19,3.684 z m 0.07,-91.184 51.38,99.21 h 9.43 l -51.25,-99.21 z m 40.54,25.548 c 0,6.754 1.69,12.478 5.09,17.171 3.38,4.671 8.31,7.017 14.78,7.017 5.92,0 10.84,-2.105 14.72,-6.316 3.88,-4.21 5.81,-10.416 5.81,-18.574 0,-7.961 -1.95,-14.101 -5.88,-18.399 -3.92,-4.298 -8.79,-6.447 -14.58,-6.447 -5.7,0 -10.44,2.127 -14.23,6.381 -3.8,4.254 -5.71,10.658 -5.71,19.167 z m 20.2,16.162 c -2.91,0 -5.31,-1.228 -7.21,-3.706 -1.91,-2.478 -2.85,-7.018 -2.85,-13.619 0,-5.964 0.96,-10.175 2.89,-12.653 1.91,-2.478 4.28,-3.706 7.11,-3.706 2.96,0 5.37,1.228 7.28,3.706 1.9,2.478 2.85,6.996 2.85,13.552 0,6.053 -0.97,10.307 -2.9,12.742 -1.91,2.456 -4.3,3.684 -7.17,3.684"
       style="fill:#000000;fill-opacity:1;fill-rule:nonzero;stroke:none;stroke-width:0.1"
       id="path74" />
    <path
       d="m -856.9091,3097.5254 h 231.85 c 14.31,0 26.01,-11.705 26.01,-26.013 v -533.673 c 0,-14.308 -11.7,-26.013 -26.01,-26.013 h -231.85 c -14.3,0 -26.01,11.705 -26.01,26.013 v 533.673 c 0,14.308 11.71,26.013 26.01,26.013"
       style="fill:#00ff00;fill-opacity:1;fill-rule:evenodd;stroke:none;stroke-width:0.1"
       id="path162" />
    <path
       d="m -870.5291,3121.4664 h 50.18 v 27.113 c 0,10.1 4.14,19.299 10.82,25.993 l 0.02,0.019 0.02,0.02 c 6.69,6.676 15.89,10.816 25.99,10.816 h 82.67 c 10.14,0 19.36,-4.143 26.03,-10.816 l -0.02,-0.02 c 6.69,-6.695 10.84,-15.903 10.84,-26.012 v -27.113 h 50.18 c 11.23,0 21.44,-4.588 28.83,-11.978 7.38,-7.389 11.97,-17.593 11.97,-28.822 v -555.268 c 0,-11.229 -4.59,-21.433 -11.97,-28.822 -7.39,-7.389 -17.6,-11.978 -28.83,-11.978 h -256.73 c -11.23,0 -21.44,4.589 -28.83,11.978 -7.39,7.389 -11.97,17.593 -11.97,28.822 v 555.268 c 0,11.229 4.58,21.433 11.97,28.822 7.39,7.39 17.6,11.978 28.83,11.978 z m 60.13,-19.903 h -60.13 c -5.74,0 -10.97,-2.355 -14.76,-6.146 -3.79,-3.79 -6.14,-9.014 -6.14,-14.751 v -555.268 c 0,-5.736 2.35,-10.961 6.14,-14.751 3.79,-3.791 9.02,-6.146 14.76,-6.146 h 256.73 c 5.74,0 10.96,2.355 14.75,6.146 3.79,3.79 6.15,9.015 6.15,14.751 v 555.268 c 0,5.737 -2.36,10.961 -6.15,14.751 -3.79,3.791 -9.01,6.146 -14.75,6.146 h -60.13 c -6.19,-0.116 -10.35,-1.007 -10.02,6.965 0.02,0.689 0.06,1.354 0.07,2.044 0,0.314 0,0.629 0,0.943 v 37.064 c 0,4.676 -1.9,8.911 -4.95,11.961 h -0.04 c -3.07,3.075 -7.31,4.984 -11.96,4.984 h -82.67 c -4.68,0 -8.91,-1.895 -11.96,-4.946 l -0.04,-0.038 c -3.05,-3.05 -4.95,-7.285 -4.95,-11.961 v -37.064 c 0.1,-7.291 0.87,-10.462 -7.96,-10.001 -0.5,0.026 -0.97,0.041 -1.47,0.049 h -0.52"
       style="fill:#000000;fill-opacity:1;fill-rule:nonzero;stroke:none;stroke-width:0.1"
       id="path164" />
    <path
       d="m -769.2491,2670.5164 44.03,164.629 h -67.96 l 58.49,164.363 -29.89,-131.819 h 73.43 l -78.1,-197.173"
       style="fill:#000000;fill-opacity:1;fill-rule:evenodd;stroke:none;stroke-width:0.1"
       id="path166" />
    <path
       d="m -769.2491,2670.5164 44.03,164.629 h -67.96 l 58.49,164.363 -29.89,-131.819 h 73.43 z"
       style="fill:none;stroke:#000000;stroke-width:0.50003;stroke-linecap:butt;stroke-linejoin:miter;stroke-miterlimit:2.61313;stroke-dasharray:none;stroke-opacity:1"
       id="path168" />
  </g>
</svg>
